<svg xmlns="http://www.w3.org/2000/svg" width="24" height="24" viewBox="0 0 24 24" fill="none">
  <path d="M9.33333 19V15C9.33333 14.4477 9.78105 14 10.3333 14H13.6667C14.219 14 14.6667 14.4477 14.6667 15V19C14.6667 19.5523 15.1144 20 15.6667 20H19C19.5523 20 20 19.5523 20 19V10.7276C20 10.4461 19.8814 10.1777 19.6733 9.98821L12.6733 3.61321C12.2917 3.26567 11.7083 3.26567 11.3267 3.61321L4.32667 9.98821C4.11859 10.1777 4 10.4461 4 10.7276V19C4 19.5523 4.44772 20 5 20H8.33333C8.88562 20 9.33333 19.5523 9.33333 19Z" stroke="currentColor" stroke-width="2.2" stroke-miterlimit="10" stroke-linecap="round"/>
</svg>