<svg width="24" height="24" viewBox="0 0 24 24" fill="none" xmlns="http://www.w3.org/2000/svg">
<path d="M14.9019 4.19353C14.236 5.01213 13.123 5.61849 12.2385 5.61849C12.1292 5.61849 12.0298 5.59828 11.9702 5.58818C11.9602 5.53764 11.9304 5.38605 11.9304 5.22436C11.9304 4.19353 12.4472 3.16271 13.0137 2.51592C13.7193 1.667 14.9118 1.04042 15.9056 1C15.9255 1.11117 15.9354 1.25265 15.9354 1.39414C15.9354 2.42496 15.5081 3.44568 14.9019 4.19353ZM15.5975 5.83072C16.154 5.83072 18.1714 5.89136 19.4932 7.82163C19.3739 7.91258 17.3764 9.06468 17.3764 11.6316C17.3764 14.5927 19.9205 15.6539 20 15.6741C19.9901 15.7448 19.5925 17.1091 18.6584 18.5139C17.8137 19.7367 16.9292 20.9798 15.5975 20.9798C14.2559 20.9798 13.9081 20.1814 12.3776 20.1814C10.8671 20.1814 10.3304 21 9.11801 21C7.88571 21 7.03106 19.858 6.05714 18.4634C4.91429 16.8161 4 14.2592 4 11.8338C4 7.95301 6.48447 5.89136 8.93913 5.89136C10.2311 5.89136 11.3043 6.75038 12.1292 6.75038C12.9043 6.75038 14.1168 5.83072 15.5975 5.83072Z" fill="white"/>
</svg>
