<svg width="40" height="40" viewBox="0 0 40 40" fill="none" xmlns="http://www.w3.org/2000/svg">
<g clip-path="url(#clip0_10820_18188)">
<path d="M32.35 30.7673L35.154 15.7113C35.278 15.0453 34.569 14.5353 33.977 14.8663L28.981 17.6593C27.586 18.4392 25.825 17.9883 24.976 16.6343L20.678 9.78125C20.364 9.28125 19.636 9.28125 19.323 9.78125L15.025 16.6343C14.176 17.9883 12.415 18.4383 11.02 17.6593L6.02403 14.8663C5.43203 14.5353 4.72303 15.0443 4.84703 15.7113L7.65103 30.7673" fill="#FFCD00"/>
<path d="M30.767 35.5166H9.23302C8.28302 35.5166 7.65002 34.8836 7.65002 33.9336V30.7666H32.35V33.9336C32.35 34.7256 31.717 35.5166 30.767 35.5166Z" fill="#FFAD00"/>
<path d="M20 9.40487C21.399 9.40487 22.533 8.2708 22.533 6.87187C22.533 5.47293 21.399 4.33887 20 4.33887C18.6011 4.33887 17.467 5.47293 17.467 6.87187C17.467 8.2708 18.6011 9.40487 20 9.40487Z" fill="#FFAD00"/>
<path d="M36.467 15.566C37.8659 15.566 39 14.4319 39 13.033C39 11.6341 37.8659 10.5 36.467 10.5C35.068 10.5 33.934 11.6341 33.934 13.033C33.934 14.4319 35.068 15.566 36.467 15.566Z" fill="#FFAD00"/>
<path d="M3.533 15.566C4.93194 15.566 6.066 14.4319 6.066 13.033C6.066 11.6341 4.93194 10.5 3.533 10.5C2.13406 10.5 1 11.6341 1 13.033C1 14.4319 2.13406 15.566 3.533 15.566Z" fill="#FFAD00"/>
<circle cx="20" cy="24" r="6" fill="white"/>
<path d="M20.5826 21.0848V26.5996H19.4324V22.174H19.4019L18.1375 22.9662V21.9531L19.501 21.0848H20.5826Z" fill="#778088"/>
</g>
<defs>
<clipPath id="clip0_10820_18188">
<rect width="40" height="40" fill="white"/>
</clipPath>
</defs>
</svg>
