<svg width="80" height="23" viewBox="0 0 80 23" fill="none" xmlns="http://www.w3.org/2000/svg">
<path d="M1.5 3.57511e-07C0.671571 1.60063e-07 -2.93554e-08 0.671573 -6.55671e-08 1.5L-9.39794e-07 21.5C-9.76006e-07 22.3284 0.671572 23 1.5 23L76.3832 23C77.5683 23 78.2854 21.6904 77.6469 20.6919L72.5838 12.774C72.2801 12.299 72.2684 11.6938 72.5535 11.2074L77.799 2.25855C78.3851 1.25859 77.664 1.85105e-05 76.5049 1.82342e-05L1.5 3.57511e-07Z" fill="#FF6700"/>
<path d="M9.25407 5.83544C9.65167 5.39013 10.3483 5.39013 10.7459 5.83544L11.1937 6.33693C11.4171 6.58711 11.751 6.70865 12.0829 6.66059L12.7483 6.56424C13.3391 6.47869 13.8728 6.9265 13.8911 7.52319L13.9118 8.19517C13.9221 8.53041 14.0998 8.83816 14.3849 9.0147L14.9566 9.36858C15.4642 9.68281 15.5851 10.3689 15.2156 10.8378L14.7995 11.3658C14.5919 11.6293 14.5302 11.9792 14.6352 12.2978L14.8456 12.9363C15.0325 13.5033 14.6841 14.1066 14.0997 14.2283L13.4415 14.3653C13.1131 14.4337 12.8409 14.6621 12.7166 14.9736L12.4673 15.598C12.246 16.1524 11.5914 16.3907 11.0654 16.1082L10.4732 15.7901C10.1777 15.6314 9.82232 15.6314 9.52684 15.7901L8.93456 16.1082C8.40864 16.3907 7.75398 16.1524 7.53267 15.598L7.28343 14.9736C7.15909 14.6621 6.88687 14.4337 6.55851 14.3653L5.90033 14.2283C5.31588 14.1066 4.96754 13.5033 5.15439 12.9363L5.36481 12.2978C5.46979 11.9792 5.40808 11.6293 5.20049 11.3658L4.78437 10.8378C4.41487 10.3689 4.53585 9.68281 5.04343 9.36858L5.61505 9.0147C5.90023 8.83816 6.07791 8.53041 6.08821 8.19517L6.10886 7.52319C6.12721 6.9265 6.66089 6.47869 7.2517 6.56424L7.91706 6.66059C8.249 6.70865 8.58292 6.58711 8.8063 6.33693L9.25407 5.83544Z" fill="#2AD0C6"/>
<path d="M8.5 11.0769L9.44737 12L11.5 10" stroke="white" stroke-width="1.5" stroke-linecap="round" stroke-linejoin="round"/>
<path d="M27.1846 11.7451V12.7119H23.3174V15.9453H22.1357V12.7119H18.3115V11.7451H27.1846ZM26.0996 6.73926V10.6064H19.3965V6.73926H26.0996ZM20.5674 7.69531V9.67188H24.9072V7.69531H20.5674ZM36.7021 13.8398V14.8281H27.8291V13.8398H30.1816V12.2393H28.8818V9.07031H34.4678V7.87793H28.8604V6.91113H35.6494V10.0264H30.0742V11.2725H35.875V12.2393H34.457V13.8398H36.7021ZM31.3418 13.8398H33.2861V12.2393H31.3418V13.8398ZM40.3008 9.20996C40.3008 10.7139 40.9238 12.2285 42.2773 12.959L41.6113 13.8398C40.709 13.3618 40.0967 12.5078 39.7529 11.4873C39.4092 12.5884 38.7969 13.5283 37.8838 14.0654L37.1855 13.1631C38.5605 12.3682 39.1729 10.7461 39.1729 9.20996V8.90918H37.5186V7.94238H39.1729V6.58887H40.3008V7.94238H41.9229V8.90918H40.3008V9.20996ZM45.6934 6.24512V15.9561H44.5547V6.24512H45.6934ZM43.7168 6.42773V15.4834H42.5889V10.9609H41.3213V9.97266H42.5889V6.42773H43.7168ZM54.9746 6.24512V12.1211H53.7822V10.1123H52.3965V9.12402H53.7822V6.24512H54.9746ZM54.9746 12.5615V15.8379H48.5186V12.5615H54.9746ZM49.7109 13.5068V14.8711H53.8037V13.5068H49.7109ZM52.5576 7.14746V8.11426H46.8643V7.14746H49.1201V6.16992H50.3018V7.14746H52.5576ZM49.7109 8.49023C51.0645 8.49023 52.0098 9.20996 52.0205 10.2305C52.0098 11.2832 51.0645 11.9707 49.7109 11.9707C48.3682 11.9707 47.4121 11.2832 47.4121 10.2305C47.4121 9.20996 48.3682 8.49023 49.7109 8.49023ZM49.7109 9.39258C49.0127 9.39258 48.5508 9.71484 48.5508 10.2305C48.5508 10.7676 49.0127 11.0791 49.7109 11.0791C50.4092 11.0791 50.8711 10.7676 50.8711 10.2305C50.8711 9.71484 50.4092 9.39258 49.7109 9.39258ZM65.2012 10.7031V11.6699H61.3555V12.4756C63.0957 12.5938 64.1162 13.1953 64.127 14.2051C64.1162 15.3223 62.8594 15.9453 60.7646 15.9453C58.6484 15.9453 57.3809 15.3223 57.3809 14.2051C57.3809 13.1953 58.4121 12.5884 60.1738 12.4756V11.6699H56.3496V10.7031H65.2012ZM60.7646 13.3779C59.3467 13.3887 58.584 13.668 58.5947 14.2051C58.584 14.7422 59.3467 15.0322 60.7646 15.0322C62.1504 15.0322 62.9238 14.7422 62.9346 14.2051C62.9238 13.668 62.1504 13.3887 60.7646 13.3779ZM64.4062 6.6748V7.63086H61.6133C61.8013 8.43115 62.9614 9.15088 64.7822 9.31738L64.3633 10.2627C62.6016 10.0854 61.291 9.38184 60.7646 8.39355C60.2383 9.37646 58.9492 10.0854 57.1875 10.2627L56.7793 9.31738C58.5625 9.15088 59.7227 8.42041 59.9268 7.63086H57.1553V6.6748H64.4062Z" fill="#FFF741"/>
</svg>
