<svg width="24" height="24" viewBox="0 0 24 24" fill="none" xmlns="http://www.w3.org/2000/svg">
<path d="M12.1199 10.5459V13.6441H16.4253C16.2362 14.6405 15.6689 15.4842 14.818 16.0515L17.4143 18.0661C18.927 16.6697 19.7998 14.6188 19.7998 12.1824C19.7998 11.6151 19.7489 11.0696 19.6543 10.546L12.1199 10.5459Z" fill="#4285F4"/>
<path d="M7.63757 13.5225L7.052 13.9707L4.97925 15.5853C6.2956 18.1962 8.99356 19.9999 12.1208 19.9999C14.2807 19.9999 16.0916 19.2871 17.4152 18.0653L14.8189 16.0507C14.1062 16.5307 13.1971 16.8217 12.1208 16.8217C10.0408 16.8217 8.27361 15.418 7.64084 13.5271L7.63757 13.5225Z" fill="#34A853"/>
<path d="M4.97799 8.41406C4.43257 9.4904 4.11987 10.705 4.11987 11.9995C4.11987 13.2941 4.43257 14.5087 4.97799 15.585C4.97799 15.5922 7.63983 13.5195 7.63983 13.5195C7.47983 13.0395 7.38526 12.5304 7.38526 11.9994C7.38526 11.4685 7.47983 10.9594 7.63983 10.4794L4.97799 8.41406Z" fill="#FABB05"/>
<path d="M12.121 7.1855C13.2991 7.1855 14.3464 7.59277 15.1827 8.37825L17.4736 6.08733C16.0845 4.79279 14.281 4 12.121 4C8.99373 4 6.2956 5.79639 4.97925 8.41462L7.64101 10.4801C8.2737 8.58915 10.041 7.1855 12.121 7.1855Z" fill="#E94235"/>
</svg>
