<svg width="26" height="26" viewBox="0 0 26 26" fill="none" xmlns="http://www.w3.org/2000/svg">
<path d="M23.8236 11.5132C23.8236 6.47855 18.8364 2.38255 12.7058 2.38255C6.57606 2.38255 1.58826 6.47855 1.58826 11.5132C1.58826 16.0268 5.54346 19.8068 10.8861 20.5216C11.2482 20.6006 11.741 20.7632 11.8657 21.0764C11.9778 21.3609 11.939 21.8065 11.9015 22.0938C11.9015 22.0938 11.771 22.8878 11.7429 23.0569C11.6945 23.3414 11.5195 24.1694 12.7058 23.6634C13.8925 23.1574 19.1086 19.848 21.441 17.1309C23.0522 15.3429 23.8236 13.5282 23.8236 11.5132Z" fill="white"/>
<path d="M10.447 9.07238H9.66719C9.54763 9.07238 9.45044 9.1704 9.45044 9.29083V14.1878C9.45044 14.3084 9.54763 14.4062 9.66719 14.4062H10.447C10.5666 14.4062 10.6636 14.3084 10.6636 14.1878V9.29083C10.6636 9.1704 10.5666 9.07238 10.447 9.07238Z" fill="#06C755"/>
<path d="M15.8146 9.07238H15.0348C14.9152 9.07238 14.8182 9.1704 14.8182 9.29083V12.2001L12.5983 9.16954C12.5572 9.10729 12.4906 9.07646 12.418 9.07238H11.6384C11.5188 9.07238 11.4216 9.1704 11.4216 9.29083V14.1878C11.4216 14.3084 11.5188 14.4062 11.6384 14.4062H12.418C12.5378 14.4062 12.6347 14.3084 12.6347 14.1878V11.2793L14.8574 14.3138C14.8974 14.371 14.9651 14.4062 15.0348 14.4062H15.8146C15.9344 14.4062 16.0311 14.3084 16.0311 14.1878V9.29083C16.0311 9.1704 15.9344 9.07238 15.8146 9.07238Z" fill="#06C755"/>
<path d="M8.56716 13.1805H6.44826V9.29154C6.44826 9.17068 6.35128 9.07265 6.23193 9.07265H5.45189C5.33232 9.07265 5.23535 9.17068 5.23535 9.29154V14.1876C5.23535 14.3065 5.3319 14.4067 5.45168 14.4067H8.56716C8.68673 14.4067 8.78327 14.3085 8.78327 14.1876V13.3993C8.78327 13.2785 8.68673 13.1805 8.56716 13.1805Z" fill="#06C755"/>
<path d="M20.1211 10.2989C20.2407 10.2989 20.3372 10.2011 20.3372 10.0801V9.29175C20.3372 9.17089 20.2407 9.07265 20.1211 9.07265H17.0058C16.8862 9.07265 16.7893 9.17271 16.7893 9.29154V14.1879C16.7893 14.3064 16.8859 14.4067 17.0054 14.4067H20.1211C20.2407 14.4067 20.3372 14.3085 20.3372 14.1879V13.3993C20.3372 13.2787 20.2407 13.1805 20.1211 13.1805H18.0024V12.3527H20.1211C20.2407 12.3527 20.3372 12.2547 20.3372 12.1338V11.3455C20.3372 11.2247 20.2407 11.1264 20.1211 11.1264H18.0024V10.2989H20.1211Z" fill="#06C755"/>
</svg>
