<svg width="16" height="16" viewBox="0 0 16 16" fill="none" xmlns="http://www.w3.org/2000/svg">
<path d="M12.4676 1.2002H3.53083C2.88723 1.2002 2.36523 1.7222 2.36523 2.3658V2.7542C2.36523 3.3978 2.88723 3.9198 3.53083 3.9198H12.468C13.1116 3.9198 13.6336 4.4418 13.6336 5.0854V4.3082C13.6336 3.6646 13.1116 3.1426 12.468 3.1426H3.53083C3.31643 3.1426 3.14243 2.9686 3.14243 2.7542V2.3658C3.14243 2.1514 3.31643 1.9774 3.53083 1.9774H12.468C13.112 1.9774 13.6336 2.4994 13.6336 3.143V2.3658C13.6336 1.7218 13.1112 1.2002 12.4676 1.2002Z" fill="#FFA300"/>
<path d="M12.4676 3.91951H3.53083C2.88723 3.91951 2.36523 3.39751 2.36523 2.75391V5.23471C2.37683 5.23311 2.38723 5.22791 2.39963 5.22791H3.14243C3.30803 5.22791 3.44243 5.36231 3.44243 5.52791C3.44243 5.69351 3.30803 5.82791 3.14243 5.82791H2.39963C2.38763 5.82791 2.37723 5.82231 2.36523 5.82111V7.81071C2.37683 7.80911 2.38723 7.80391 2.39963 7.80391H3.14243C3.30803 7.80391 3.44243 7.93831 3.44243 8.10391C3.44243 8.26951 3.30803 8.40391 3.14243 8.40391H2.39963C2.38763 8.40391 2.37723 8.39831 2.36523 8.39711V10.3863C2.37683 10.3847 2.38723 10.3795 2.39963 10.3795H3.14243C3.30803 10.3795 3.44243 10.5139 3.44243 10.6795C3.44243 10.8451 3.30803 10.9795 3.14243 10.9795H2.39963C2.38763 10.9795 2.37723 10.9739 2.36523 10.9727V12.9619C2.37683 12.9603 2.38723 12.9551 2.39963 12.9551H3.14243C3.30803 12.9551 3.44243 13.0895 3.44243 13.2551C3.44243 13.4207 3.30803 13.5551 3.14243 13.5551H2.39963C2.38763 13.5551 2.37723 13.5495 2.36523 13.5483V13.6347C2.36523 14.2783 2.88723 14.8003 3.53083 14.8003H12.468C13.1116 14.8003 13.6336 14.2783 13.6336 13.6347V5.08511C13.6336 4.44111 13.1112 3.91951 12.4676 3.91951Z" fill="#FFC33A"/>
<path d="M12.4678 1.97696H3.53098C3.31658 1.97696 3.14258 2.15096 3.14258 2.36536V2.75376C3.14258 2.96856 3.31658 3.14216 3.53098 3.14216H12.4682C13.1122 3.14216 13.6338 3.66416 13.6338 4.30776V3.14216C13.6338 2.49856 13.1118 1.97656 12.4682 1.97656L12.4678 1.97696Z" fill="#E5E8EB"/>
<path d="M2.09982 5.52826C2.09982 5.37466 2.21702 5.25306 2.36542 5.23506V5.22106C2.10182 5.20226 1.89102 4.98786 1.89102 4.71946C1.89102 4.45106 2.10182 4.23626 2.36542 4.21786V3.61426C1.77022 3.63306 1.29102 4.11986 1.29102 4.71946C1.29102 5.31906 1.77022 5.80586 2.36542 5.82466V5.82106C2.21662 5.80346 2.09982 5.68186 2.09982 5.52826Z" fill="#65778E"/>
<path d="M2.09982 8.10483C2.09982 7.95123 2.21702 7.82963 2.36542 7.81163V7.79763C2.10182 7.77883 1.89102 7.56403 1.89102 7.29563C1.89102 7.02723 2.10182 6.81243 2.36542 6.79403V6.19043C1.77022 6.20923 1.29102 6.69603 1.29102 7.29563C1.29102 7.89523 1.77022 8.38243 2.36542 8.40123V8.39763C2.21662 8.38003 2.09982 8.25843 2.09982 8.10483Z" fill="#65778E"/>
<path d="M2.09982 10.68C2.09982 10.5264 2.21702 10.4048 2.36542 10.3868V10.3728C2.10182 10.354 1.89102 10.1392 1.89102 9.87082C1.89102 9.60242 2.10182 9.38762 2.36542 9.36922V8.76562C1.77022 8.78442 1.29102 9.27122 1.29102 9.87082C1.29102 10.4704 1.77022 10.9576 2.36542 10.9764V10.9728C2.21662 10.9552 2.09982 10.8336 2.09982 10.68Z" fill="#65778E"/>
<path d="M2.09982 13.2552C2.09982 13.1016 2.21702 12.98 2.36542 12.962V12.948C2.10182 12.9292 1.89102 12.7144 1.89102 12.446C1.89102 12.1776 2.10182 11.9628 2.36542 11.9444V11.3408C1.77022 11.3596 1.29102 11.8464 1.29102 12.446C1.29102 13.0456 1.77022 13.5328 2.36542 13.5516V13.548C2.21662 13.5304 2.09982 13.4088 2.09982 13.2552Z" fill="#65778E"/>
<path d="M2.09961 13.2551C2.09961 13.4087 2.21681 13.5303 2.36521 13.5483C2.37681 13.5499 2.38721 13.5551 2.39961 13.5551H3.14241C3.30801 13.5551 3.44241 13.4207 3.44241 13.2551C3.44241 13.0895 3.30801 12.9551 3.14241 12.9551H2.39961C2.38761 12.9551 2.37721 12.9607 2.36521 12.9619C2.21641 12.9795 2.09961 13.1015 2.09961 13.2551Z" fill="#65778E"/>
<path d="M2.09961 10.6799C2.09961 10.8335 2.21681 10.9551 2.36521 10.9731C2.37681 10.9747 2.38721 10.9799 2.39961 10.9799H3.14241C3.30801 10.9799 3.44241 10.8455 3.44241 10.6799C3.44241 10.5143 3.30801 10.3799 3.14241 10.3799H2.39961C2.38761 10.3799 2.37721 10.3855 2.36521 10.3867C2.21641 10.4043 2.09961 10.5263 2.09961 10.6799Z" fill="#65778E"/>
<path d="M2.09961 8.10469C2.09961 8.25829 2.21681 8.37989 2.36521 8.39789C2.37681 8.39949 2.38721 8.40469 2.39961 8.40469H3.14241C3.30801 8.40469 3.44241 8.27029 3.44241 8.10469C3.44241 7.93909 3.30801 7.80469 3.14241 7.80469H2.39961C2.38761 7.80469 2.37721 7.81029 2.36521 7.81149C2.21641 7.82909 2.09961 7.95109 2.09961 8.10469Z" fill="#65778E"/>
<path d="M2.09961 5.52852C2.09961 5.68212 2.21681 5.80372 2.36521 5.82172C2.37681 5.82332 2.38721 5.82852 2.39961 5.82852H3.14241C3.30801 5.82852 3.44241 5.69412 3.44241 5.52852C3.44241 5.36292 3.30801 5.22852 3.14241 5.22852H2.39961C2.38761 5.22852 2.37721 5.23412 2.36521 5.23532C2.21641 5.25292 2.09961 5.37492 2.09961 5.52852Z" fill="#65778E"/>
</svg>
